<svg xmlns="http://www.w3.org/2000/svg" xmlns:xlink="http://www.w3.org/1999/xlink" viewBox="0,0,256,256" width="200px" height="200px" fill-rule="nonzero"><g fill="none" fill-rule="nonzero" stroke="none" stroke-width="none" stroke-linecap="none" stroke-linejoin="none" stroke-miterlimit="10" stroke-dasharray="" stroke-dashoffset="0" font-family="none" font-weight="none" font-size="none" text-anchor="none" style="mix-blend-mode: normal"><g transform="scale(4,4)"><circle cx="32" cy="32" r="23" fill="#fcc419" stroke="none" stroke-width="1" stroke-linecap="butt" stroke-linejoin="miter"></circle><ellipse cx="32" cy="61" rx="19" ry="3" fill="#000000" stroke="none" stroke-width="1" stroke-linecap="butt" stroke-linejoin="miter" opacity="0.3"></ellipse><path d="M32,14c2.577,0 4.674,-1.957 4.946,-4.461c-1.594,-0.349 -3.247,-0.539 -4.946,-0.539c-12.703,0 -23,10.297 -23,23c0,1.699 0.19,3.352 0.539,4.946c2.505,-0.272 4.461,-2.369 4.461,-4.946c0,-9.925 8.075,-18 18,-18z" fill="#ffffff" stroke="none" stroke-width="1" stroke-linecap="butt" stroke-linejoin="miter" opacity="0.3"></path><path d="M15.047,23.427c1.878,-3.699 4.932,-6.705 8.666,-8.522" fill="none" stroke="#ffffff" stroke-width="3" stroke-linecap="round" stroke-linejoin="round"></path><path d="M40,19h-3.987c-6.282,0 -7.993,2.994 -7.997,8.326l-0.016,3.674h-4c-0.552,0 -1,0.448 -1,1v4c0,0.552 0.448,1 1,1h4v17.646c1.3,0.228 2.635,0.354 4,0.354c1.018,0 2.018,-0.073 3.001,-0.201l0.006,-17.793l4.325,-0.005c0.488,-0.001 0.905,-0.354 0.985,-0.836l0.667,-4.001c0.101,-0.609 -0.369,-1.164 -0.987,-1.164h-4.997l-0.003,-3.331c0,-1.707 0.274,-2.674 2.72,-2.674l2.281,0.004c0.553,0.001 1.002,-0.447 1.002,-1v-3.999c0,-0.552 -0.448,-1 -1,-1z" fill="#ffffff" stroke="none" stroke-width="1" stroke-linecap="butt" stroke-linejoin="miter"></path><path d="M54.461,27.054c-2.505,0.272 -4.461,2.369 -4.461,4.946c0,9.925 -8.075,18 -18,18c-2.577,0 -4.674,1.957 -4.946,4.461c1.594,0.349 3.247,0.539 4.946,0.539c12.703,0 23,-10.297 23,-23c0,-1.699 -0.19,-3.352 -0.539,-4.946z" fill="#000000" stroke="none" stroke-width="1" stroke-linecap="butt" stroke-linejoin="miter" opacity="0.15"></path></g></g></svg>