<svg xmlns="http://www.w3.org/2000/svg" xmlns:xlink="http://www.w3.org/1999/xlink" viewBox="0,0,256,256" width="200px" height="200px" fill-rule="nonzero"><g fill="none" fill-rule="nonzero" stroke="none" stroke-width="none" stroke-linecap="none" stroke-linejoin="none" stroke-miterlimit="10" stroke-dasharray="" stroke-dashoffset="0" font-family="none" font-weight="none" font-size="none" text-anchor="none" style="mix-blend-mode: normal"><g transform="scale(4,4)"><circle cx="32" cy="32" r="23" fill="#fcc419" stroke="none" stroke-width="1" stroke-linecap="butt" stroke-linejoin="miter"></circle><ellipse cx="32" cy="61" rx="19" ry="3" fill="#000000" stroke="none" stroke-width="1" stroke-linecap="butt" stroke-linejoin="miter" opacity="0.3"></ellipse><path d="M32,14c2.577,0 4.674,-1.957 4.946,-4.461c-1.594,-0.349 -3.247,-0.539 -4.946,-0.539c-12.703,0 -23,10.297 -23,23c0,1.699 0.19,3.352 0.539,4.946c2.505,-0.272 4.461,-2.369 4.461,-4.946c0,-9.925 8.075,-18 18,-18z" fill="#ffffff" stroke="none" stroke-width="1" stroke-linecap="butt" stroke-linejoin="miter" opacity="0.3"></path><path d="M15.047,23.427c1.878,-3.699 4.932,-6.705 8.666,-8.522" fill="none" stroke="#ffffff" stroke-width="3" stroke-linecap="round" stroke-linejoin="round"></path><path d="M54.461,27.054c-2.505,0.272 -4.461,2.369 -4.461,4.946c0,9.925 -8.075,18 -18,18c-2.577,0 -4.674,1.957 -4.946,4.461c1.594,0.349 3.247,0.539 4.946,0.539c12.703,0 23,-10.297 23,-23c0,-1.699 -0.19,-3.352 -0.539,-4.946z" fill="#000000" stroke="none" stroke-width="1" stroke-linecap="butt" stroke-linejoin="miter" opacity="0.15"></path><g fill="#f4fff4" stroke="none" stroke-width="1" stroke-linecap="butt" stroke-linejoin="miter"><path d="M21.321,27.071h3.286c0.454,0 0.821,0.368 0.821,0.821v14.786c0,0.454 -0.368,0.821 -0.821,0.821h-3.286c-0.454,0 -0.821,-0.368 -0.821,-0.821v-14.785c0,-0.454 0.368,-0.822 0.821,-0.822z"></path><path d="M22.95,25.429h-0.028c-1.471,0 -2.422,-1.096 -2.422,-2.465c0,-1.399 0.981,-2.463 2.478,-2.463c1.499,0 2.423,1.065 2.45,2.463c0.001,1.367 -0.951,2.465 -2.478,2.465z"></path><path d="M39.393,43.5c-0.454,0 -0.821,-0.368 -0.821,-0.821v-7.899c0,-2.106 -1.174,-3.544 -3.059,-3.544c-1.438,0 -2.217,0.97 -2.594,1.907c-0.138,0.335 -0.097,1.263 -0.097,1.732v7.804c0,0.454 -0.368,0.821 -0.821,0.821h-3.286c-0.454,0 -0.821,-0.368 -0.821,-0.821v-14.786c0,-0.454 0.368,-0.821 0.821,-0.821h3.285c0.454,0 0.821,0.368 0.821,0.821v1.643c0.691,-1.07 1.91,-2.469 4.677,-2.469c3.429,0 6,2.298 6,7.112l0.001,8.499c0,0.454 -0.368,0.822 -0.821,0.822z"></path></g></g></g></svg>